<?xml version="1.0" encoding="UTF-8"?><svg id="a" xmlns="http://www.w3.org/2000/svg" width="100mm" height="100mm" viewBox="0 0 283.46 283.46"><path d="M255.93,102.66c0-9.77-2.02-20.21-6.74-30.99l-16.17,6.74c3.71,8.76,5.05,16.84,5.05,24.25,0,29.64-25.6,51.54-54.23,51.54-5.12,0-10.23-.58-15.2-2.19-1.59-.52-1.58-2.78,0-3.36,27.4-10.04,45.53-38.19,45.53-67.55,0-24.93-13.14-51.2-45.81-64.68l-6.74,15.83c25.26,10.44,35.37,29.64,35.37,48.51,0,19.87-11.16,39.74-28.72,49.06-1.48.79-3.08-.8-2.39-2.33,4.11-9.11,5.85-18.61,5.85-27.87,0-37.73-29.98-72.09-69.06-72.09-9.43,0-19.88,2.02-30.99,6.74l6.74,16.17c8.76-3.71,16.84-5.05,24.25-5.05,29.31,0,51.54,25.6,51.54,53.9,0,5.16-.59,10.51-2.23,15.61-.51,1.58-2.74,1.58-3.32.02-10.26-27.73-38.15-45.62-67.55-45.62-25.27,0-51.2,12.8-64.68,45.81l15.83,6.74c10.44-25.26,29.64-35.37,48.51-35.37,19.87,0,39.74,10.88,49.06,28.67.78,1.48-.81,3.08-2.33,2.37-8.87-4.15-18.37-6.11-27.87-6.11-37.73,0-72.09,29.98-72.09,69.06,0,9.77,2.02,20.21,6.74,30.99l16.17-6.74c-3.7-8.42-5.05-16.51-5.05-23.92,0-29.64,25.94-51.88,54.23-51.88,5.09,0,10.18.77,15.12,2.31,1.59.49,1.63,2.74.07,3.33-27.66,10.58-45.51,38.43-45.51,67.8,0,25.26,12.8,51.2,45.81,64.68l6.74-16.17c-25.27-10.11-35.37-29.31-35.37-48.51s10.9-39.75,28.74-48.83c1.49-.76,3.06.84,2.36,2.35-4.1,8.89-5.83,18.42-5.83,27.95,0,37.73,29.64,71.75,68.72,71.75,9.77,0,20.21-2.02,30.99-6.4l-6.74-16.17c-8.42,3.7-16.51,5.05-23.92,5.05-29.98,0-51.88-25.94-51.88-54.57,0-5.08.76-9.97,2.3-14.81.6-1.88,2.71-1.64,3.33-.07,7.67,20.1,24.38,34.26,42.55,41.15,7.75,2.69,16.51,4.38,25.27,4.38,24.93,0,51.2-13.14,64.68-45.81l-16.17-6.74c-10.11,25.26-29.31,35.37-48.51,35.37s-39.85-10.96-48.9-28.88c-.74-1.47.81-3.05,2.31-2.38,8.92,3.99,18.45,5.99,27.72,5.99,37.73,0,72.42-29.98,72.42-69.06M159.32,141.73c0,9.69-7.89,17.58-17.58,17.58s-17.59-7.89-17.59-17.58,7.89-17.58,17.59-17.58,17.58,7.89,17.58,17.58" fill="#00316a"/></svg>