<?xml version="1.0" encoding="UTF-8"?><svg id="a" xmlns="http://www.w3.org/2000/svg" width="100mm" height="100mm" viewBox="0 0 283.46 283.46"><path d="M141.73,125.11c9.14,0,16.56,7.44,16.56,16.63s-7.41,16.62-16.56,16.62-16.56-7.44-16.56-16.62,7.41-16.63,16.56-16.63M141.73,109.9c-17.48,0-31.7,14.28-31.7,31.83s14.22,31.83,31.7,31.83,31.7-14.28,31.7-31.83-14.22-31.83-31.7-31.83M43.89,43.49c31.83,51.88,21.47,85.22-40.43,97.68,61.9,12.46,72.26,46.36,40.43,98.24,51.67-31.95,85.43-21.56,97.84,40.6,12.41-62.15,46.18-72.55,97.84-40.6-31.82-51.88-21.47-85.78,40.43-98.24-61.9-12.46-72.26-45.8-40.43-97.68-51.67,31.96-85.43,22.12-97.84-40.03-12.41,62.16-46.18,71.99-97.84,40.03M208.51,208.22c-31.25-8.68-53.26,1.05-66.78,27.67h0c-13.52-26.62-35.53-36.35-66.78-27.67,8.64-31.38-1.05-53.47-27.56-67.05h0c26.51-13.58,36.2-35.67,27.56-67.05,31.25,8.68,53.26-1.05,66.78-27.67h0c13.52,26.62,35.53,36.35,66.78,27.67-8.64,31.38,1.05,53.48,27.56,67.05h0c-26.51,13.58-36.2,35.67-27.56,67.05" fill="#00316a"/></svg>