<?xml version="1.0" encoding="UTF-8"?><svg id="a" xmlns="http://www.w3.org/2000/svg" width="100mm" height="100mm" viewBox="0 0 283.46 283.46"><path d="M157.67,101.81c-10.75,0-18.81,8.06-18.81,18.81,0,13.05,11.52,22.65,28.03,22.65,20.35,0,34.55-14.21,34.55-34.55,0-24.19-20.35-43.38-46.07-43.38-29.56,0-53.36,24.57-53.36,55.67,0,34.93,31.1,64.88,68.72,64.88,42.61,0,76.78-37.62,76.78-83.31,0-52.21-44.92-95.21-101.35-95.21-63.73,0-115.94,55.29-115.94,124,0,77.93,67.18,144.74,147.42,144.74v-17.66c-69.1,0-129.76-57.59-129.76-127.07,0-58.74,44.15-106.34,98.67-106.34,46.45,0,83.69,34.93,83.69,77.55,0,36.47-26.87,65.65-59.51,65.65-28.03,0-51.44-21.88-51.44-47.22,0-21.12,16.12-38.01,36.09-38.01,16.13,0,28.41,11.52,28.41,25.72,0,10.37-3.84,16.51-11.13,17.66,1.15-1.92,1.92-4.99,1.92-8.06,0-9.6-7.3-16.51-16.89-16.51" /></svg>
