<?xml version="1.0" encoding="UTF-8"?><svg id="a" xmlns="http://www.w3.org/2000/svg" width="100mm" height="100mm" viewBox="0 0 283.46 283.46"><path d="M159.33,141.73c0,9.72-7.88,17.6-17.6,17.6s-17.6-7.88-17.6-17.6,7.88-17.6,17.6-17.6,17.6,7.88,17.6,17.6M141.73,90.11c-28.51,0-51.63,23.11-51.63,51.63s23.11,51.63,51.63,51.63,51.63-23.11,51.63-51.63-23.11-51.63-51.63-51.63M210.31,141.73c0,37.88-30.7,68.58-68.58,68.58s-68.58-30.71-68.58-68.58,30.7-68.58,68.58-68.58,68.58,30.71,68.58,68.58M141.72,30.37c-61.51,0-111.36,49.86-111.36,111.37s49.86,111.37,111.36,111.37,111.37-49.86,111.37-111.37S203.23,30.37,141.72,30.37M270.06,141.73c0,70.88-57.46,128.33-128.33,128.33S13.4,212.61,13.4,141.73,70.86,13.4,141.73,13.4s128.33,57.46,128.33,128.33" fill="#00316a"/></svg>