<?xml version="1.0" encoding="UTF-8"?><svg id="a" xmlns="http://www.w3.org/2000/svg" width="100mm" height="100mm" viewBox="0 0 283.46 283.46"><path d="M169.66,141.73l100.41,32.8-5.33,16.5-100.41-32.8,62.06,85.88-13.96,10.2-62.06-85.88v106.16h-17.26v-106.16l-62.05,85.88-13.96-10.2,62.06-85.88-100.41,32.8-5.33-16.5,100.41-32.8L13.4,108.93l5.33-16.5,100.41,32.8L57.09,39.35l13.96-10.2,62.05,85.88V8.87h17.26v106.16l62.06-85.88,13.96,10.2-62.06,85.88,100.41-32.8,5.33,16.5-100.41,32.8ZM159.2,141.73c0-9.69-7.84-17.57-17.47-17.57s-17.47,7.88-17.47,17.57,7.84,17.57,17.47,17.57,17.47-7.88,17.47-17.57"/></svg>
